<svg width="41" height="12" viewBox="0 0 41 12" fill="none" xmlns="http://www.w3.org/2000/svg">
<g clip-path="url(#clip0_4186_11924)">
<path d="M24.6906 7.8616H18.4143C18.4273 8.15606 18.4986 8.445 18.6239 8.71179C18.7492 8.97857 18.9261 9.2179 19.1444 9.41597C19.5874 9.80892 20.1633 10.0186 20.7553 10.0024C21.669 10.0024 22.3151 9.62636 22.6935 8.8743H24.5281C24.2833 9.61042 23.8107 10.2496 23.1787 10.6995C22.4682 11.1902 21.6181 11.438 20.7553 11.406C20.0154 11.4205 19.2847 11.2411 18.6357 10.8856C18.0205 10.5437 17.5144 10.0351 17.1755 9.41832C16.8118 8.74574 16.6292 7.99016 16.6456 7.22572C16.629 6.46296 16.8065 5.70849 17.1614 5.03312C17.4897 4.41512 17.9926 3.90734 18.6074 3.57296C19.2642 3.22078 20.0007 3.04395 20.7458 3.05954C21.4677 3.04599 22.1811 3.21704 22.8183 3.55647C23.4143 3.88328 23.9046 4.37353 24.2314 4.96954C24.5781 5.60606 24.7526 6.32207 24.7377 7.04674C24.7402 7.32185 24.7205 7.59672 24.6789 7.86867L24.6906 7.8616ZM22.9714 6.51213C22.9776 6.23036 22.9205 5.95079 22.8044 5.69401C22.6882 5.43722 22.5159 5.20978 22.3002 5.02841C21.8452 4.65153 21.2681 4.45387 20.6775 4.47261C20.124 4.45951 19.5858 4.65544 19.1703 5.02135C18.7434 5.40686 18.4776 5.93923 18.4261 6.51213H22.9714Z" fill="#733BE6"/>
<path d="M28.6567 9.78294L30.9835 3.19336H32.7852L29.6553 11.2784H27.6275L24.5117 3.19336H26.3322L28.6567 9.78294Z" fill="#733BE6"/>
<path d="M33.0771 5.04408C33.4027 4.4351 33.8922 3.92932 34.4902 3.58392C35.0838 3.23534 35.7613 3.05539 36.4496 3.06344C37.0349 3.05016 37.6149 3.17778 38.1406 3.43554C38.5908 3.66038 38.9857 3.98209 39.2969 4.37758V3.20003H41.0115V11.2827H39.2969V10.0746C38.9823 10.4781 38.5795 10.8044 38.1194 11.0284C37.5469 11.3035 36.9155 11.4334 36.2809 11.4067C35.6464 11.38 35.0281 11.1975 34.4807 10.8753C33.8893 10.5128 33.4081 9.99572 33.0889 9.37982C32.7375 8.70739 32.5601 7.95762 32.5731 7.199C32.5584 6.44845 32.7359 5.70662 33.0889 5.04408H33.0771ZM38.946 5.77652C38.7318 5.3852 38.4151 5.05956 38.0299 4.83447C37.658 4.6211 37.2363 4.50979 36.8076 4.51183C36.3797 4.50961 35.9586 4.61834 35.5853 4.82741C35.2005 5.04569 34.8835 5.36597 34.6692 5.75296C34.4255 6.19428 34.3044 6.69273 34.3182 7.19664C34.3059 7.70789 34.4268 8.21354 34.6692 8.66388C34.8817 9.0637 35.2014 9.39642 35.5924 9.62475C35.9603 9.84244 36.3801 9.95713 36.8076 9.95683C37.2459 9.96022 37.6768 9.84376 38.0537 9.62003C38.4305 9.3963 38.7391 9.07381 38.946 8.68742C39.1875 8.2393 39.3084 7.73616 39.2969 7.22726C39.309 6.72055 39.188 6.21952 38.946 5.77416" fill="#733BE6"/>
<path d="M3.31387 2.35039C3.96291 2.35039 4.48907 1.82424 4.48907 1.1752C4.48907 0.526154 3.96291 0 3.31387 0C2.66483 0 2.13867 0.526154 2.13867 1.1752C2.13867 1.82424 2.66483 2.35039 3.31387 2.35039Z" fill="#FF6400"/>
<path d="M11.2025 2.35039C11.8516 2.35039 12.3777 1.82424 12.3777 1.1752C12.3777 0.526154 11.8516 0 11.2025 0C10.5535 0 10.0273 0.526154 10.0273 1.1752C10.0273 1.82424 10.5535 2.35039 11.2025 2.35039Z" fill="#FF6400"/>
<path d="M10.5693 11.6884C9.5075 11.6884 8.48915 11.2666 7.73831 10.5158C6.98748 9.76496 6.56566 8.74661 6.56566 7.68477C6.57195 6.9997 6.30663 6.34004 5.82774 5.85012C5.34886 5.3602 4.6954 5.07991 4.01037 5.0706H3.98447C3.33488 5.11916 2.72743 5.41065 2.28313 5.88701C1.83883 6.36337 1.59029 6.98962 1.58702 7.64101C1.58375 8.2924 1.826 8.92112 2.2655 9.40191C2.705 9.8827 3.3095 10.1803 3.95856 10.2353C4.343 10.2429 4.72406 10.1624 5.07253 9.99983C5.28616 9.90042 5.48508 9.77203 5.66366 9.61831L6.5845 10.6899C6.09518 11.1144 5.51014 11.4139 4.8796 11.5626C4.24906 11.7113 3.59186 11.7047 2.96441 11.5435C2.33696 11.3823 1.75799 11.0712 1.27722 10.637C0.796444 10.2028 0.428218 9.65843 0.204145 9.05058C-0.0199265 8.44274 -0.093152 7.78959 -0.00924263 7.14722C0.0746668 6.50484 0.313203 5.89243 0.685891 5.36253C1.05858 4.83264 1.55429 4.40109 2.13047 4.10494C2.70664 3.80879 3.34608 3.65688 3.99389 3.66225H4.03392C5.09249 3.67529 6.10281 4.10707 6.84385 4.86311C7.58489 5.61916 7.99632 6.63792 7.98814 7.69654C7.98857 8.25819 8.17152 8.80449 8.50943 9.25313C8.84733 9.70177 9.32189 10.0284 9.86159 10.1839C10.4013 10.3394 10.9769 10.3153 11.5017 10.1152C12.0265 9.91509 12.4721 9.54986 12.7712 9.07452C13.0704 8.59918 13.207 8.03949 13.1604 7.47977C13.1139 6.92005 12.8867 6.39062 12.5131 5.97126C12.1394 5.5519 11.6397 5.26532 11.089 5.15469C10.5384 5.04407 9.96667 5.11539 9.46008 5.35792C9.24662 5.45929 9.04843 5.59009 8.87131 5.74652L7.94104 4.68201C8.21456 4.44103 8.52057 4.23967 8.85011 4.08381C9.38649 3.82612 9.97427 3.69326 10.5693 3.69522C11.1169 3.65759 11.6664 3.73296 12.1837 3.91665C12.7009 4.10034 13.1749 4.38842 13.5761 4.76301C13.9773 5.1376 14.2972 5.59068 14.5159 6.09412C14.7346 6.59755 14.8475 7.14058 14.8475 7.68948C14.8475 8.23837 14.7346 8.7814 14.5159 9.28483C14.2972 9.78827 13.9773 10.2414 13.5761 10.6159C13.1749 10.9905 12.7009 11.2786 12.1837 11.4623C11.6664 11.646 11.1169 11.7214 10.5693 11.6837V11.6884Z" fill="#FF6400"/>
</g>
<defs>
<clipPath id="clip0_4186_11924">
<rect width="41" height="11.6884" fill="white"/>
</clipPath>
</defs>
</svg>
