<svg width="149" height="52" viewBox="0 0 149 52" fill="none" xmlns="http://www.w3.org/2000/svg">	<path fill-rule="evenodd" clip-rule="evenodd" d="M90.8772 28.7103H88.1251V41.7701H90.8938V28.7131L90.8772 28.7103ZM76.4967 28.7103H73.728V41.7701H76.4967V36.3661H81.9703V41.7701H84.739V28.7103H83.3907C82.6124 28.7103 81.9814 29.3415 81.9814 30.1202V33.84H76.4967V28.7103ZM56.4265 28.7103H53.6827V41.7701H56.4514L56.4265 28.7103ZM45.7477 31.2641C47.6664 31.2641 48.58 31.8181 48.58 33.1448C48.58 34.4716 47.6304 35.0837 45.7477 35.0837H43.7155V31.2641H45.7477ZM46.2322 28.7103H40.9468V41.7701H43.7155V37.6347H46.2294C47.7384 37.6347 48.9676 37.2248 49.9173 36.3855C50.8605 35.5557 51.3801 34.3451 51.3321 33.0894C51.3321 31.7451 50.8707 30.6834 49.9478 29.9041C49.0147 29.1009 47.7882 28.7103 46.2405 28.7103H46.2322ZM48.8431 19.772C48.8431 20.88 48.0429 21.2788 46.5008 21.2788H43.7155V18.3289H46.5617C48.0706 18.3289 48.832 18.8137 48.832 19.7637L48.8431 19.772ZM48.5164 14.6617C48.5164 15.5563 47.791 16.0023 46.3568 16.0023H43.7155V13.3432H46.246C47.8657 13.3432 48.5164 13.6978 48.5164 14.6838V14.6617ZM49.9699 17.0493C50.8195 16.4376 51.3192 15.4512 51.31 14.4041C51.31 12.0774 49.5408 10.8033 46.8053 10.8033H40.9468V23.8298H47.1265C48.4859 23.8298 49.5657 23.4753 50.3824 22.7884C51.2034 22.1072 51.6641 21.0851 51.6311 20.0185C51.6311 18.8081 51.0774 17.8221 49.9699 17.041V17.0493ZM60.7678 18.8081H57.5284L59.1481 14.5453L60.7678 18.8081ZM62.7059 23.8354H65.5714L60.8176 11.6813C60.6073 11.1353 60.0818 10.776 59.497 10.7783H57.8357L52.7248 23.8298H55.5903L56.6147 21.2594H61.6593L62.7059 23.8354ZM65.7846 28.5109C63.8272 28.5109 62.2075 29.1258 60.9062 30.375C59.6049 31.6242 58.9432 33.239 58.9432 35.2693C58.9432 37.2996 59.5966 38.9005 60.9007 40.1304C62.2047 41.3602 63.8798 41.9751 65.8843 41.9751C68.0826 41.9751 69.8518 41.1552 71.1919 39.5154L69.3479 37.5599C68.547 38.7277 67.211 39.4121 65.7957 39.3797C64.7353 39.4112 63.7074 39.0115 62.9467 38.2718C62.1853 37.5267 61.7922 36.5046 61.7922 35.225C61.7922 33.9453 62.1853 32.9537 62.9467 32.228C63.6632 31.5139 64.6348 31.1151 65.6462 31.1201C66.5939 31.113 67.5168 31.423 68.2681 32.0009C68.8309 32.4293 69.6248 32.3698 70.1176 31.8624L70.9731 30.9899C69.731 29.3907 67.8028 28.4776 65.7791 28.5303L65.7846 28.5109ZM76.4413 23.8298H78.958V10.7784H76.1893V19.6225L71.3441 11.4653C71.0915 11.0389 70.6325 10.7777 70.137 10.7784H67.6036V23.8298H70.3723V15.0245L75.2286 23.1457C75.4835 23.5694 75.9414 23.8289 76.4357 23.8298H76.4413ZM85.47 20.3288C84.7086 19.5837 84.3182 18.5616 84.3182 17.2819C84.3182 16.0023 84.7086 15.0107 85.47 14.285C86.1865 13.5709 87.158 13.1721 88.1694 13.177C89.1278 13.1706 90.0604 13.4877 90.8163 14.0772C91.3768 14.4904 92.1569 14.4228 92.6381 13.9194L93.4936 13.0469C92.2555 11.444 90.3293 10.5258 88.3051 10.5734C86.3504 10.5734 84.7335 11.1883 83.4294 12.4347C82.1254 13.6811 81.4747 15.3015 81.4747 17.3318C81.4747 19.3621 82.1282 20.9631 83.4294 22.1929C84.7307 23.4227 86.4085 24.0348 88.3992 24.0348C90.5939 24.0348 92.3621 23.2159 93.704 21.578L91.8601 19.6225C91.0643 20.7881 89.7352 21.4743 88.3245 21.4478C87.2641 21.4793 86.2362 21.0796 85.4755 20.3398L85.47 20.3288ZM96.8132 28.7214H94.2799V41.7812H97.0486V32.9592L101.908 41.0832C102.161 41.5092 102.619 41.7702 103.115 41.7701H105.632V28.7103H102.882V37.5738L98.0204 29.4083C97.7669 28.9827 97.3084 28.7218 96.8132 28.7214ZM105.734 17.2958C105.765 18.3752 105.386 19.4263 104.674 20.2374C103.965 21.0418 102.929 21.4801 101.858 21.4284C100.648 21.4284 99.6982 21.0378 98.9922 20.2374C98.2785 19.4269 97.8995 18.3754 97.9318 17.2958C97.9023 16.2217 98.2813 15.1763 98.9922 14.3708C99.7243 13.5693 100.774 13.1332 101.858 13.1798C102.914 13.1529 103.928 13.5962 104.626 14.3902C105.356 15.1797 105.753 16.2207 105.734 17.2958ZM106.565 22.1347C107.865 20.8667 108.574 19.1114 108.519 17.2958C108.573 15.4899 107.864 13.745 106.565 12.4901C105.297 11.2235 103.566 10.531 101.775 10.5734C99.9842 10.5398 98.2575 11.2379 96.993 12.5065C95.7286 13.7752 95.0358 15.5047 95.0745 17.2958C95.024 19.0918 95.7124 20.8299 96.979 22.1038C98.2455 23.3777 99.9792 24.0758 101.775 24.0348C103.562 24.0755 105.29 23.39 106.565 22.1347ZM112.16 38.2718C111.396 37.5212 110.994 36.4991 110.994 35.225C110.994 33.9508 111.385 32.9537 112.149 32.228C112.865 31.5129 113.837 31.1139 114.848 31.1201C115.807 31.1118 116.74 31.4292 117.495 32.0203C118.056 32.4351 118.838 32.3674 119.32 31.8624L120.175 30.9899C118.933 29.3899 117.003 28.4767 114.979 28.5303C113.024 28.5303 111.404 29.1452 110.1 30.3944C108.796 31.6436 108.145 33.2639 108.145 35.2942C108.145 37.3245 108.796 38.9255 110.1 40.1553C111.404 41.3851 113.079 42 115.084 42C117.278 42 119.048 41.1801 120.391 39.5404L118.547 37.5849C117.743 38.7386 116.415 39.4125 115.009 39.3797C113.949 39.4112 112.921 39.0115 112.16 38.2718ZM131.181 41.7756H133.936V28.7103H132.59C131.812 28.7103 131.181 29.3415 131.181 30.1202V33.84H125.707V28.7103H122.939V41.7701H125.707V36.3661H131.181V41.7756ZM144.194 36.7456H140.954L142.574 32.4801L144.194 36.7456ZM149 41.7756L144.246 29.6077C144.036 29.0672 143.516 28.7109 142.937 28.7103H141.253L136.151 41.7701L139.019 41.7701L140.043 39.1997H145.088L146.132 41.7701L149 41.7756Z" fill="#0F265C"/>	<path fill-rule="evenodd" clip-rule="evenodd" d="M31.8474 10V41.9999H10.6631C4.76434 41.9999 0 37.2128 0 31.2858L0 10L31.8474 10ZM26.5442 15.3286L15.9379 15.3286V20.1442H21.7515V25.9857H26.5442V15.3286Z" fill="#FFDD00"/>	<path fill-rule="evenodd" clip-rule="evenodd" d="M26.5458 15.3333H15.9395V20.149H21.7531V25.9905H26.5458V15.3333Z" fill="#0F265C"/></svg>